<?xml version="1.0" encoding="utf-8"?>
<!-- Generator: Adobe Illustrator 16.0.0, SVG Export Plug-In . SVG Version: 6.00 Build 0)  -->
<!DOCTYPE svg PUBLIC "-//W3C//DTD SVG 1.1//EN" "http://www.w3.org/Graphics/SVG/1.1/DTD/svg11.dtd">
<svg version="1.1" id="Layer_1" xmlns="http://www.w3.org/2000/svg" xmlns:xlink="http://www.w3.org/1999/xlink" x="0px" y="0px"
	 width="160px" height="60px" viewBox="0 0 160 60" enable-background="new 0 0 160 60" xml:space="preserve">
<g>
	<g>
		<g>
			<g>
				
					<linearGradient id="SVGID_1_" gradientUnits="userSpaceOnUse" x1="41.4785" y1="52.6855" x2="116.5332" y2="52.6855" gradientTransform="matrix(1.2753 0.0048 0.0048 1.0001 -25.0479 -0.4365)">
					<stop  offset="0" style="stop-color:#599246"/>
					<stop  offset="0.3148" style="stop-color:#6EA24A"/>
					<stop  offset="1" style="stop-color:#9ACB57"/>
				</linearGradient>
				<path fill="url(#SVGID_1_)" d="M123.83,54.027c-4.179,1.282-10.723,0.466-16.139-0.278c-25.948-3.582-54.258-4.049-79.588-1.314
					"/>
			</g>
			<g>
				<g>
					<linearGradient id="SVGID_2_" gradientUnits="userSpaceOnUse" x1="144.2686" y1="43.6279" x2="149.3496" y2="43.6279">
						<stop  offset="0" style="stop-color:#599246"/>
						<stop  offset="0.3148" style="stop-color:#6EA24A"/>
						<stop  offset="1" style="stop-color:#9ACB57"/>
					</linearGradient>
					<path fill="url(#SVGID_2_)" d="M144.5,48.894c0.804-1.891,1.41-3.845,2.28-5.712c0.744-1.596,1.865-2.86,2.753-4.351
						c0.165-0.276-0.178-0.664-0.461-0.461c-2.868,2.05-4.556,7.126-4.756,10.474C144.311,48.938,144.461,48.984,144.5,48.894
						L144.5,48.894z"/>
				</g>
			</g>
			<g>
				<g>
					<linearGradient id="SVGID_3_" gradientUnits="userSpaceOnUse" x1="141.0234" y1="26.6309" x2="158.3477" y2="26.6309">
						<stop  offset="0" style="stop-color:#599246"/>
						<stop  offset="0.3148" style="stop-color:#6EA24A"/>
						<stop  offset="1" style="stop-color:#9ACB57"/>
					</linearGradient>
					<path fill="url(#SVGID_3_)" d="M148.616,40.579c0.596,2.617,2.178,4.392,4.955,3.573c3.279-0.966,4.777-6.914,5.028-9.7
						c0.4-4.445,0.15-9.158-3.515-12.184c-1.484-1.225-3.985-1.866-5.649-2.663c-4.263-2.042-6.316-6.063-7.748-10.321
						c-0.22-0.653-1.21-0.391-1.037,0.286c1.376,5.382,4.386,9.259,9.421,11.656c1.063,0.506,2.239,0.902,3.307,1.385
						c3.393,1.536,4.039,5.393,4.237,8.664c0.236,3.887-3.405,17.047-8.845,9.239C148.716,40.437,148.594,40.483,148.616,40.579
						L148.616,40.579z"/>
				</g>
			</g>
			<g>
				<g>
					<linearGradient id="SVGID_4_" gradientUnits="userSpaceOnUse" x1="136.0146" y1="12.9697" x2="147.4951" y2="12.9697">
						<stop  offset="0" style="stop-color:#599246"/>
						<stop  offset="0.3148" style="stop-color:#6EA24A"/>
						<stop  offset="1" style="stop-color:#9ACB57"/>
					</linearGradient>
					<path fill="url(#SVGID_4_)" d="M139.62,24.589c-3.307-6.028-3.797-12.379-0.715-18.726c2.481-5.109,6.572-2.417,7.538,1.97
						c0.729,3.318,0.12,6.987-0.829,10.179c-0.235,0.793,0.999,1.129,1.234,0.34c1.187-3.974,2.429-20.34-6.029-16.627
						c-3.445,1.512-4.909,7.523-5.148,10.739c-0.325,4.383-0.003,9.433,3.801,12.275C139.564,24.808,139.669,24.678,139.62,24.589
						L139.62,24.589z"/>
				</g>
			</g>
			<g>
				<g>
					<linearGradient id="SVGID_5_" gradientUnits="userSpaceOnUse" x1="132.7871" y1="21.1689" x2="136.6406" y2="21.1689">
						<stop  offset="0" style="stop-color:#599246"/>
						<stop  offset="0.3148" style="stop-color:#6EA24A"/>
						<stop  offset="1" style="stop-color:#9ACB57"/>
					</linearGradient>
					<path fill="url(#SVGID_5_)" d="M136.436,16.244c-2.528,1.835-4.11,6.435-3.945,9.444c0.026,0.487,0.755,0.628,0.877,0.119
						c0.382-1.602,0.581-3.204,1.092-4.781c0.527-1.63,1.386-3.051,2.241-4.517C136.792,16.351,136.599,16.125,136.436,16.244
						L136.436,16.244z"/>
				</g>
			</g>
			<g>
				<g>
					<linearGradient id="SVGID_6_" gradientUnits="userSpaceOnUse" x1="132.7256" y1="34.7568" x2="145.4678" y2="34.7568">
						<stop  offset="0" style="stop-color:#599246"/>
						<stop  offset="0.3148" style="stop-color:#6EA24A"/>
						<stop  offset="1" style="stop-color:#9ACB57"/>
					</linearGradient>
					<path fill="url(#SVGID_6_)" d="M132.667,26.81c3.277,0.928,5.83,1.921,8.331,4.38c3.358,3.304,3.843,7.153,3.411,11.621
						c-0.056,0.571,0.756,0.59,0.933,0.126c2.723-7.165-4.611-17.944-12.675-16.568C132.435,26.409,132.463,26.752,132.667,26.81
						L132.667,26.81z"/>
				</g>
			</g>
			<g>
				<g>
					<linearGradient id="SVGID_7_" gradientUnits="userSpaceOnUse" x1="132.4541" y1="37.8662" x2="144.4102" y2="37.8662">
						<stop  offset="0" style="stop-color:#599246"/>
						<stop  offset="0.3148" style="stop-color:#6EA24A"/>
						<stop  offset="1" style="stop-color:#9ACB57"/>
					</linearGradient>
					<path fill="url(#SVGID_7_)" d="M144.428,46.934c-1.585-0.536-2.342-5.143-2.849-6.542c-0.651-1.801-1.515-3.513-2.456-5.176
						c-1.502-2.655-3.658-5.392-6.434-6.766c-0.3-0.148-0.672,0.256-0.38,0.491c3.991,3.214,6.536,6.923,8.497,11.663
						c0.65,1.571,1.195,6.702,3.569,6.709C144.602,47.314,144.63,47.002,144.428,46.934L144.428,46.934z"/>
				</g>
			</g>
		</g>
		<linearGradient id="SVGID_8_" gradientUnits="userSpaceOnUse" x1="1.1978" y1="28.0283" x2="17.7593" y2="28.0283">
			<stop  offset="0" style="stop-color:#A74A9C"/>
			<stop  offset="0.596" style="stop-color:#763794"/>
			<stop  offset="1" style="stop-color:#572D90"/>
		</linearGradient>
		<linearGradient id="SVGID_9_" gradientUnits="userSpaceOnUse" x1="1.0479" y1="28.0244" x2="17.9092" y2="28.0244">
			<stop  offset="0" style="stop-color:#599246"/>
			<stop  offset="0.3148" style="stop-color:#6EA24A"/>
			<stop  offset="1" style="stop-color:#9ACB57"/>
		</linearGradient>
		<path fill="url(#SVGID_8_)" stroke="url(#SVGID_9_)" stroke-width="0.3" stroke-miterlimit="10" d="M10.443,28.383
			c0.515-1.46,1.333-3.991,2.446-7.604l2.903-9.436h1.967v0.593c-1.031,2.162-2.294,5.427-3.791,9.799
			c-1.499,4.361-2.394,7.286-2.688,8.78c-0.103,0.514-0.154,1.844-0.154,3.987c0,2.854,0.039,5.117,0.116,6.796
			c0.05,0.89,0.135,1.435,0.259,1.616c0.122,0.172,0.557,0.345,1.301,0.452l0.964,0.2v1.481c-1.475-0.096-2.626-0.154-3.457-0.154
			l-4.09,0.154v-1.481h1.083c0.724,0,1.155-0.279,1.301-0.83c0.144-0.554,0.217-3.037,0.217-7.477c0-1.278-0.024-2.695-0.064-4.231
			c-1.094-3.736-2.099-6.973-3.02-9.701c-0.921-2.727-1.697-4.727-2.333-5.988c-0.347-0.69-0.648-1.145-0.905-1.374
			c-0.256-0.212-0.689-0.328-1.3-0.328v-1.489c0.345-0.134,1.03-0.386,2.043-0.761l0.999-0.379c0.393,0.269,0.704,0.606,0.938,1.015
			c0.424,0.743,1.069,2.446,1.942,5.101C7.789,19.155,8.896,22.915,10.443,28.383z"/>
		<linearGradient id="SVGID_10_" gradientUnits="userSpaceOnUse" x1="16.8604" y1="33.542" x2="31.332" y2="33.542">
			<stop  offset="0" style="stop-color:#A74A9C"/>
			<stop  offset="0.596" style="stop-color:#763794"/>
			<stop  offset="1" style="stop-color:#572D90"/>
		</linearGradient>
		<linearGradient id="SVGID_11_" gradientUnits="userSpaceOnUse" x1="16.7104" y1="33.543" x2="31.4819" y2="33.543">
			<stop  offset="0" style="stop-color:#599246"/>
			<stop  offset="0.3148" style="stop-color:#6EA24A"/>
			<stop  offset="1" style="stop-color:#9ACB57"/>
		</linearGradient>
		<path fill="url(#SVGID_10_)" stroke="url(#SVGID_11_)" stroke-width="0.3" stroke-miterlimit="10" d="M26.994,44.792l0.14-4.251
			l-0.748,1.503c-0.581,1.194-1.177,2.032-1.777,2.496c-0.606,0.489-1.349,0.733-2.239,0.733c-0.755,0-1.412-0.292-1.959-0.895
			c-0.55-0.595-0.949-1.388-1.195-2.347c-0.25-0.941-0.375-2.457-0.375-4.523c0-1.081,0.013-2.331,0.038-3.755l0.038-3.815
			c0-2.672-0.04-4.151-0.121-4.454c-0.08-0.303-0.347-0.45-0.805-0.45h-1.13v-1.304c1.156-0.191,2.22-0.59,3.196-1.188l1.052-0.732
			c0.147,0,0.22,0.204,0.22,0.59l-0.091,2.426c-0.116,3.341-0.175,6.458-0.175,9.324c0,2.886,0.063,4.725,0.186,5.52
			c0.126,0.793,0.395,1.46,0.801,1.993c0.403,0.521,0.895,0.788,1.479,0.788c0.783,0,1.504-0.469,2.156-1.423
			c0.654-0.953,1.082-1.896,1.284-2.863c0.111-0.558,0.166-2.232,0.166-4.999c0-4.683-0.046-7.226-0.14-7.633
			c-0.085-0.333-0.466-0.499-1.14-0.499h-1.006v-1.304c0.876-0.191,1.613-0.411,2.222-0.661c0.607-0.253,1.251-0.639,1.928-1.143
			c0.084-0.081,0.16-0.116,0.227-0.116c0.143,0,0.215,0.154,0.215,0.449l-0.047,2.207c-0.128,5.408-0.192,10.16-0.192,14.268
			c0,2.303,0.064,3.619,0.192,3.958c0.184,0.485,0.586,0.731,1.204,0.731h0.735v1.368c-1.058-0.1-1.955-0.15-2.688-0.15
			C28.092,44.642,27.543,44.692,26.994,44.792z"/>
		<linearGradient id="SVGID_12_" gradientUnits="userSpaceOnUse" x1="32.2808" y1="33.8008" x2="54.5259" y2="33.8008">
			<stop  offset="0" style="stop-color:#A74A9C"/>
			<stop  offset="0.596" style="stop-color:#763794"/>
			<stop  offset="1" style="stop-color:#572D90"/>
		</linearGradient>
		<linearGradient id="SVGID_13_" gradientUnits="userSpaceOnUse" x1="32.1309" y1="33.8135" x2="54.6763" y2="33.8135">
			<stop  offset="0" style="stop-color:#599246"/>
			<stop  offset="0.3148" style="stop-color:#6EA24A"/>
			<stop  offset="1" style="stop-color:#9ACB57"/>
		</linearGradient>
		<path fill="url(#SVGID_12_)" stroke="url(#SVGID_13_)" stroke-width="0.3" stroke-miterlimit="10" d="M36.594,26.651l1.699-2.846
			c0.27-0.456,0.556-0.788,0.864-0.975c0.438-0.287,0.874-0.429,1.304-0.429c0.956,0,1.722,0.32,2.302,0.964
			c0.581,0.64,1.108,1.79,1.591,3.447l1.636-2.797c0.282-0.475,0.625-0.837,1.034-1.087c0.532-0.354,1.047-0.527,1.548-0.527
			c0.759,0,1.45,0.33,2.068,0.999c0.622,0.663,1.079,1.524,1.378,2.583c0.305,1.066,0.454,2.497,0.454,4.327l-0.053,9.277
			c0,2.073,0.065,3.289,0.194,3.661c0.125,0.363,0.453,0.58,0.981,0.628l0.932,0.062v1.382l-0.612-0.051
			c-0.987-0.088-1.654-0.12-2.003-0.12c-0.538,0-1.163,0.067-1.877,0.171c0.121-2.917,0.178-6.333,0.178-10.254
			c0-3.298-0.076-5.475-0.227-6.509c-0.15-1.038-0.444-1.856-0.875-2.447c-0.431-0.592-0.967-0.882-1.618-0.882
			c-0.735,0-1.363,0.369-1.885,1.115c-0.524,0.744-0.847,1.635-0.974,2.67c-0.085,0.654-0.127,3.47-0.127,8.424
			c0,2.929,0.012,4.599,0.039,5.011c0.025,0.406,0.096,0.695,0.209,0.861c0.114,0.163,0.477,0.31,1.096,0.453l0.85,0.176v1.382
			c-1.496-0.104-2.592-0.171-3.295-0.171c-0.559,0-1.643,0.067-3.247,0.171v-1.382h0.849c0.508,0,0.838-0.128,0.99-0.391
			c0.151-0.272,0.239-0.907,0.265-1.896c0.067-2.606,0.104-5.306,0.104-8.125c0-2.511-0.091-4.248-0.273-5.209
			c-0.183-0.954-0.492-1.702-0.926-2.261c-0.434-0.556-0.958-0.829-1.564-0.829c-0.651,0-1.243,0.342-1.774,1.013
			c-0.537,0.686-0.899,1.505-1.096,2.472c-0.122,0.662-0.186,2.542-0.186,5.644c0,3.401,0.015,5.907,0.049,7.499
			c0.018,0.743,0.08,1.213,0.189,1.427c0.111,0.217,0.474,0.353,1.089,0.481l0.878,0.174v1.382
			c-1.058-0.104-2.055-0.171-2.992-0.171c-1.067,0-2.224,0.067-3.479,0.171v-1.382h0.966c0.549,0,0.878-0.278,0.989-0.813
			c0.109-0.546,0.163-3.52,0.163-8.92c0-3.961-0.01-6.3-0.036-7.008c-0.027-0.712-0.099-1.163-0.214-1.355
			c-0.12-0.187-0.478-0.287-1.077-0.287h-0.79v-1.302c1.244-0.31,2.314-0.747,3.209-1.303l0.925-0.666
			c0.153,0,0.229,0.193,0.229,0.572l-0.023,0.856C36.594,24.592,36.584,25.571,36.594,26.651z"/>
		<linearGradient id="SVGID_14_" gradientUnits="userSpaceOnUse" x1="56.2085" y1="33.8008" x2="78.4492" y2="33.8008">
			<stop  offset="0" style="stop-color:#A74A9C"/>
			<stop  offset="0.596" style="stop-color:#763794"/>
			<stop  offset="1" style="stop-color:#572D90"/>
		</linearGradient>
		<linearGradient id="SVGID_15_" gradientUnits="userSpaceOnUse" x1="56.0586" y1="33.8135" x2="78.5996" y2="33.8135">
			<stop  offset="0" style="stop-color:#599246"/>
			<stop  offset="0.3148" style="stop-color:#6EA24A"/>
			<stop  offset="1" style="stop-color:#9ACB57"/>
		</linearGradient>
		<path fill="url(#SVGID_14_)" stroke="url(#SVGID_15_)" stroke-width="0.3" stroke-miterlimit="10" d="M60.521,26.651l1.697-2.846
			c0.269-0.456,0.556-0.788,0.861-0.975c0.44-0.287,0.878-0.429,1.304-0.429c0.96,0,1.728,0.32,2.303,0.964
			c0.581,0.64,1.111,1.79,1.592,3.447l1.636-2.797c0.282-0.475,0.623-0.837,1.032-1.087c0.534-0.354,1.052-0.527,1.549-0.527
			c0.764,0,1.451,0.33,2.07,0.999c0.619,0.663,1.078,1.524,1.381,2.583c0.299,1.066,0.45,2.497,0.45,4.327l-0.054,9.277
			c0,2.073,0.067,3.289,0.195,3.661c0.125,0.363,0.454,0.58,0.984,0.628l0.929,0.062v1.382l-0.614-0.051
			c-0.987-0.088-1.654-0.12-2-0.12c-0.537,0-1.162,0.067-1.876,0.171c0.118-2.917,0.173-6.333,0.173-10.254
			c0-3.298-0.075-5.475-0.225-6.509c-0.148-1.038-0.44-1.856-0.875-2.447c-0.431-0.592-0.969-0.882-1.616-0.882
			c-0.738,0-1.366,0.369-1.889,1.115c-0.519,0.744-0.847,1.635-0.971,2.67c-0.084,0.654-0.128,3.47-0.128,8.424
			c0,2.929,0.015,4.599,0.04,5.011c0.024,0.406,0.093,0.695,0.208,0.861c0.117,0.163,0.48,0.31,1.097,0.453l0.848,0.176v1.382
			c-1.497-0.104-2.592-0.171-3.293-0.171c-0.561,0-1.644,0.067-3.249,0.171v-1.382h0.847c0.509,0,0.838-0.128,0.991-0.391
			c0.151-0.272,0.237-0.907,0.268-1.896c0.069-2.606,0.1-5.306,0.1-8.125c0-2.511-0.089-4.248-0.274-5.209
			c-0.18-0.954-0.49-1.702-0.927-2.261c-0.431-0.556-0.953-0.829-1.563-0.829c-0.651,0-1.242,0.342-1.775,1.013
			c-0.535,0.686-0.898,1.505-1.092,2.472c-0.125,0.662-0.19,2.542-0.19,5.644c0,3.401,0.017,5.907,0.055,7.499
			c0.015,0.743,0.078,1.213,0.186,1.427c0.112,0.217,0.474,0.353,1.092,0.481l0.875,0.174v1.382
			c-1.057-0.104-2.053-0.171-2.99-0.171c-1.066,0-2.226,0.067-3.474,0.171v-1.382h0.96c0.551,0,0.882-0.278,0.99-0.813
			c0.11-0.546,0.166-3.52,0.166-8.92c0-3.961-0.014-6.3-0.039-7.008c-0.026-0.712-0.097-1.163-0.214-1.355
			c-0.122-0.187-0.479-0.287-1.078-0.287h-0.785v-1.302c1.241-0.31,2.309-0.747,3.204-1.303l0.927-0.666
			c0.151,0,0.226,0.193,0.226,0.572l-0.022,0.856C60.521,24.592,60.509,25.571,60.521,26.651z"/>
		<linearGradient id="SVGID_16_" gradientUnits="userSpaceOnUse" x1="76.8081" y1="41.8213" x2="90.5693" y2="41.8213">
			<stop  offset="0" style="stop-color:#A74A9C"/>
			<stop  offset="0.596" style="stop-color:#763794"/>
			<stop  offset="1" style="stop-color:#572D90"/>
		</linearGradient>
		<linearGradient id="SVGID_17_" gradientUnits="userSpaceOnUse" x1="76.6582" y1="41.8086" x2="90.7197" y2="41.8086">
			<stop  offset="0" style="stop-color:#599246"/>
			<stop  offset="0.3148" style="stop-color:#6EA24A"/>
			<stop  offset="1" style="stop-color:#9ACB57"/>
		</linearGradient>
		<path fill="url(#SVGID_16_)" stroke="url(#SVGID_17_)" stroke-width="0.3" stroke-miterlimit="10" d="M77.312,58.976l0.594-3.686
			h0.289c0.23,0.507,0.459,0.896,0.686,1.142c0.228,0.258,0.464,0.385,0.699,0.385c0.526,0,1.009-0.47,1.438-1.422
			c0.431-0.938,1.1-3.589,1.994-7.937c-0.377-1.826-1.113-5.316-2.234-10.477l-1.176-5.437l-0.954-4.141
			c-0.296-1.458-0.739-2.198-1.331-2.198h-0.509v-1.371c0.881,0.115,1.658,0.169,2.334,0.169c0.525,0,1.746-0.055,3.664-0.169v1.371
			h-0.94c-0.32,0-0.557,0.107-0.704,0.311c-0.147,0.208-0.221,0.454-0.221,0.755c0,0.254,0.08,0.801,0.241,1.631
			c0.857,4.399,1.864,9.097,3.018,14.119c1.125-4.604,2.087-9.034,2.914-13.285c0.249-1.241,0.374-2.003,0.374-2.265
			c0-0.512-0.288-0.839-0.864-1l-0.939-0.266v-1.371c1.001,0.115,1.88,0.169,2.656,0.169c0.737,0,1.478-0.055,2.23-0.169v1.371
			h-0.443c-0.197,0-0.399,0.112-0.604,0.323c-0.198,0.214-0.36,0.516-0.488,0.886c-0.274,0.811-1.059,3.875-2.35,9.214
			c-0.355,1.459-1.266,5.451-2.716,11.915c-1.29,5.474-2.014,8.474-2.185,9.014c-0.33,1.038-0.75,1.849-1.266,2.402
			c-0.515,0.563-1.071,0.846-1.672,0.846c-0.246,0-0.498-0.062-0.755-0.218C77.833,59.459,77.572,59.241,77.312,58.976z"/>
		<linearGradient id="SVGID_18_" gradientUnits="userSpaceOnUse" x1="90.8379" y1="29.3154" x2="107.5137" y2="29.3154">
			<stop  offset="0" style="stop-color:#A74A9C"/>
			<stop  offset="0.596" style="stop-color:#763794"/>
			<stop  offset="1" style="stop-color:#572D90"/>
		</linearGradient>
		<linearGradient id="SVGID_19_" gradientUnits="userSpaceOnUse" x1="90.6875" y1="29.3125" x2="107.6641" y2="29.3125">
			<stop  offset="0" style="stop-color:#599246"/>
			<stop  offset="0.3148" style="stop-color:#6EA24A"/>
			<stop  offset="1" style="stop-color:#9ACB57"/>
		</linearGradient>
		<path fill="url(#SVGID_18_)" stroke="url(#SVGID_19_)" stroke-width="0.3" stroke-miterlimit="10" d="M100.142,29.663
			c0.528-1.471,1.349-4.016,2.474-7.648l2.925-9.525h1.974v0.602c-1.032,2.188-2.31,5.475-3.815,9.876
			c-1.505,4.398-2.41,7.349-2.705,8.838c-0.104,0.526-0.155,1.882-0.155,4.037c0,2.877,0.04,5.142,0.117,6.844
			c0.046,0.895,0.137,1.442,0.259,1.633c0.122,0.17,0.56,0.341,1.31,0.446l0.971,0.205v1.497c-1.478-0.115-2.644-0.172-3.479-0.172
			l-4.121,0.172v-1.497h1.093c0.727,0,1.155-0.282,1.302-0.837c0.146-0.557,0.227-3.054,0.227-7.528c0-1.3-0.021-2.736-0.068-4.271
			c-1.098-3.764-2.116-7.022-3.037-9.777c-0.936-2.749-1.715-4.758-2.357-6.025c-0.344-0.699-0.648-1.165-0.908-1.389
			c-0.266-0.222-0.691-0.335-1.307-0.335v-1.5c0.347-0.134,1.028-0.38,2.053-0.761l1.011-0.386c0.387,0.272,0.704,0.607,0.948,1.032
			c0.428,0.742,1.078,2.46,1.955,5.129C97.47,20.372,98.586,24.154,100.142,29.663z"/>
		<linearGradient id="SVGID_20_" gradientUnits="userSpaceOnUse" x1="107.4561" y1="34.4141" x2="121.9258" y2="34.4141">
			<stop  offset="0" style="stop-color:#A74A9C"/>
			<stop  offset="0.596" style="stop-color:#763794"/>
			<stop  offset="1" style="stop-color:#572D90"/>
		</linearGradient>
		<linearGradient id="SVGID_21_" gradientUnits="userSpaceOnUse" x1="107.3057" y1="34.4141" x2="122.0762" y2="34.4141">
			<stop  offset="0" style="stop-color:#599246"/>
			<stop  offset="0.3148" style="stop-color:#6EA24A"/>
			<stop  offset="1" style="stop-color:#9ACB57"/>
		</linearGradient>
		<path fill="url(#SVGID_20_)" stroke="url(#SVGID_21_)" stroke-width="0.3" stroke-miterlimit="10" d="M117.593,45.674l0.137-4.26
			l-0.752,1.505c-0.58,1.194-1.171,2.026-1.769,2.507c-0.604,0.472-1.354,0.721-2.24,0.721c-0.759,0-1.412-0.299-1.963-0.9
			c-0.547-0.593-0.952-1.376-1.195-2.345c-0.247-0.941-0.374-2.469-0.374-4.534c0-1.066,0.014-2.311,0.035-3.736l0.047-3.82
			c0-2.668-0.052-4.153-0.122-4.452c-0.087-0.297-0.357-0.447-0.812-0.447h-1.129v-1.307c1.16-0.185,2.226-0.587,3.195-1.188
			l1.055-0.735c0.145,0,0.219,0.191,0.219,0.593l-0.089,2.415c-0.121,3.354-0.177,6.474-0.177,9.343
			c0,2.878,0.063,4.711,0.188,5.515c0.128,0.799,0.391,1.452,0.798,1.985c0.408,0.526,0.899,0.788,1.479,0.788
			c0.791,0,1.502-0.469,2.159-1.425c0.654-0.952,1.084-1.891,1.28-2.861c0.114-0.549,0.167-2.225,0.167-4.999
			c0-4.676-0.049-7.223-0.137-7.634c-0.087-0.328-0.471-0.491-1.141-0.491h-1.001v-1.307c0.87-0.185,1.61-0.417,2.217-0.659
			c0.608-0.257,1.252-0.64,1.927-1.141c0.08-0.083,0.156-0.123,0.226-0.123c0.146,0,0.216,0.149,0.216,0.451l-0.045,2.203
			c-0.128,5.4-0.195,10.164-0.195,14.271c0,2.306,0.067,3.628,0.195,3.959c0.184,0.49,0.589,0.75,1.205,0.75h0.729v1.357
			c-1.051-0.114-1.953-0.163-2.688-0.163C118.683,45.511,118.144,45.56,117.593,45.674z"/>
		<linearGradient id="SVGID_22_" gradientUnits="userSpaceOnUse" x1="123.8418" y1="34.9473" x2="146.0791" y2="34.9473">
			<stop  offset="0" style="stop-color:#A74A9C"/>
			<stop  offset="0.596" style="stop-color:#763794"/>
			<stop  offset="1" style="stop-color:#572D90"/>
		</linearGradient>
		<linearGradient id="SVGID_23_" gradientUnits="userSpaceOnUse" x1="123.6914" y1="34.9609" x2="146.2295" y2="34.9609">
			<stop  offset="0" style="stop-color:#599246"/>
			<stop  offset="0.3148" style="stop-color:#6EA24A"/>
			<stop  offset="1" style="stop-color:#9ACB57"/>
		</linearGradient>
		<path fill="url(#SVGID_22_)" stroke="url(#SVGID_23_)" stroke-width="0.3" stroke-miterlimit="10" d="M128.148,27.799l1.697-2.85
			c0.273-0.458,0.562-0.781,0.865-0.973c0.438-0.282,0.877-0.426,1.307-0.426c0.953,0,1.726,0.324,2.297,0.96
			c0.584,0.643,1.116,1.795,1.596,3.458l1.636-2.804c0.284-0.47,0.625-0.841,1.032-1.1c0.536-0.336,1.047-0.516,1.546-0.516
			c0.761,0,1.457,0.333,2.079,1.003c0.614,0.657,1.074,1.524,1.374,2.585c0.299,1.054,0.447,2.496,0.447,4.317l-0.054,9.263
			c0,2.075,0.076,3.302,0.194,3.684c0.125,0.355,0.458,0.577,0.982,0.621l0.932,0.064v1.375l-0.608-0.049
			c-0.988-0.087-1.658-0.117-2.002-0.117c-0.534,0-1.17,0.055-1.879,0.166c0.118-2.912,0.18-6.344,0.18-10.249
			c0-3.3-0.08-5.477-0.23-6.514c-0.154-1.037-0.438-1.848-0.866-2.441c-0.433-0.591-0.976-0.883-1.629-0.883
			c-0.733,0-1.358,0.367-1.88,1.118c-0.529,0.746-0.853,1.632-0.974,2.674c-0.082,0.646-0.127,3.449-0.127,8.426
			c0,2.918,0.011,4.592,0.037,5.002c0.028,0.392,0.092,0.683,0.206,0.862c0.12,0.176,0.477,0.311,1.099,0.453l0.854,0.177v1.375
			c-1.504-0.111-2.6-0.166-3.302-0.166c-0.556,0-1.635,0.055-3.248,0.166v-1.375h0.851c0.511,0,0.835-0.127,0.986-0.395
			c0.156-0.271,0.245-0.894,0.269-1.908c0.072-2.593,0.107-5.278,0.107-8.112c0-2.503-0.097-4.246-0.277-5.199
			c-0.178-0.96-0.485-1.719-0.921-2.265c-0.436-0.556-0.956-0.833-1.563-0.833c-0.658,0-1.243,0.333-1.781,1.019
			c-0.532,0.672-0.895,1.5-1.091,2.458c-0.127,0.671-0.187,2.548-0.187,5.655c0,3.395,0.018,5.908,0.047,7.494
			c0.016,0.747,0.081,1.215,0.191,1.424c0.105,0.22,0.471,0.363,1.086,0.488l0.884,0.175v1.375
			c-1.062-0.111-2.058-0.166-2.999-0.166c-1.061,0-2.22,0.055-3.469,0.166v-1.375h0.96c0.546,0,0.882-0.28,0.991-0.824
			c0.102-0.535,0.164-3.502,0.164-8.914c0-3.958-0.008-6.288-0.032-7.006c-0.037-0.715-0.101-1.165-0.224-1.355
			c-0.12-0.188-0.478-0.286-1.079-0.286h-0.78v-1.303c1.24-0.313,2.308-0.751,3.201-1.3l0.931-0.666c0.15,0,0.224,0.192,0.224,0.574
			l-0.027,0.861C128.148,25.737,128.141,26.709,128.148,27.799z"/>
	</g>
</g>
</svg>
