<?xml version="1.0" encoding="utf-8"?>
<!-- Generator: Adobe Illustrator 16.0.0, SVG Export Plug-In . SVG Version: 6.00 Build 0)  -->
<!DOCTYPE svg PUBLIC "-//W3C//DTD SVG 1.1//EN" "http://www.w3.org/Graphics/SVG/1.1/DTD/svg11.dtd">
<svg version="1.1" id="Layer_1" xmlns="http://www.w3.org/2000/svg" xmlns:xlink="http://www.w3.org/1999/xlink" x="0px" y="0px"
	 width="600px" height="600px" viewBox="0 0 600 600" enable-background="new 0 0 600 600" xml:space="preserve">
<g>
	<path fill="none" d="M302.938,123.678c-0.577-0.498-0.577-0.498-0.577-0.498v0.498H302.938z"/>
	<path fill="none" d="M182.767,412.037l-3.451-19.992c-0.567-3.487-1.145-5.989-1.145-9.487l-1.144-10.506
		c-1.729-5.989-1.729-11.998-2.301-17.491c-0.572-4.989-0.572-8.989-0.572-12.501c-1.145-3.487-1.145-4.989-1.145-4.989
		s-4.046,6.512-6.335,17.49l-1.729,8.004c-0.578,3.498-0.578,6.498-1.149,9.487v10.506c-0.573,3.995-0.573,7.482,0,10.994
		c0,3.488,0,6.497,1.149,10.994c1.167,3,1.167,6.497,2.873,9.984c2.29,6.512,4.613,12.501,7.486,17.491
		c5.752,9.51,12.082,15.003,12.082,15.003s-0.589-7.497-1.74-17.988L182.767,412.037z"/>
	<path fill="#4A099A" d="M285.111,127.672c1.729,1.99,2.873,3,4.023,4.995l3.446,3.498c0,0.995,1.716,1.995,1.716,3.512
		c1.745,2.487,2.3,4.492,3.451,7.979c0.595,5.502,0.595,11.516,0.595,16.506c-0.595,10.472-2.301,17.988-2.301,17.988
		s6.319-5.492,11.486-15.998c1.15-2.492,2.873-5.492,3.451-8.989c0.567-3.512,1.718-6.497,1.718-10.994
		c0-3.512-1.15-8.014-2.301-12.013c-1.146-1.99-2.873-4.492-4.02-6.487c0-0.497-1.144-0.995-1.727-2.502l-1.717-1.492h-0.578v-0.498
		c-0.572-1.493-3.468-3-3.468-3.497c-0.555-1.508-1.145-2.005-1.145-3.513c-1.706-2.99-2.3-5.492-2.3-7.979
		c-1.728-5.501-1.728-12.013-1.15-16.505c1.161-10.989,1.755-18.486,1.755-18.486s-6.335,5.492-10.936,16.496
		c-3.445,4.497-5.168,11.501-5.746,18.998c0.573,3.985,0.573,8.477,2.301,12.501C282.811,123.181,283.383,125.17,285.111,127.672z"
		/>
	<path fill="#4A099A" d="M331.107,160.664c1.716,3,2.873,3.498,4.022,4.995l3.458,3.498c0.561,0.995,1.704,2.492,2.299,3.994
		c0.556,1.99,2.302,4.507,2.302,7.507c1.729,5.492,1.729,11.477,1.149,16.979c-1.149,10.492-1.745,18.003-1.745,18.003
		s6.336-5.512,10.925-15.998c1.733-2.502,2.879-6.009,4.023-8.999c0.579-3.498,1.729-7.497,0.579-10.994
		c0-3.995,0-8.004-2.302-11.999c0-1.99-1.727-3.985-2.873-5.99c-1.15-0.995-1.727-2.492-2.873-2.99l-0.579-1.507l-0.571-0.522
		c-1.143-1.482-3.444-3.487-3.444-3.985c-0.571-1.01-1.144-1.507-2.301-3c-0.595-2.501-1.746-5.492-2.301-7.994
		c-0.596-6.497-0.596-12.003,0-16.993c0.555-10.497,1.706-17.988,1.706-17.988s-6.318,5.492-12.064,15.496
		c-2.289,5.492-4.591,12.477-4.591,19.983c0,4.009,0.572,8.501,2.302,12.486C328.807,156.645,329.95,158.669,331.107,160.664z"/>
	<path fill="#4A099A" d="M432.296,252.615h-104.64c9.197,0,17.254-6.994,17.254-14.988c0-8.516-8.063-15.501-17.254-15.501h-42.545
		c-9.786,0-17.249,6.985-17.249,15.501c0,7.994,7.463,14.988,17.249,14.988H180.466c-29.319,0-52.904,22.486-57.505,46.474h367.4
		C485.755,275.096,461.615,252.615,432.296,252.615z"/>
	<path fill="#4A099A" d="M122.961,312.082h-1.717h-61.5v20.988h61.5v132.435c0,28.003,26.446,50.995,59.222,50.995h251.83
		c32.765,0,59.209-22.992,59.209-50.989V337.07h58.649v-24.988C407.578,312.082,264.989,312.082,122.961,312.082z M175.297,432.021
		c-2.873-4.99-5.19-10.979-7.486-17.491c-1.705-3.487-1.705-6.984-2.873-9.984c-1.15-4.497-1.15-7.506-1.15-10.994
		c-0.572-3.512-0.572-6.994,0-10.994v-10.506c0.573-2.99,0.573-5.989,1.15-9.487l1.729-8.004c2.289-10.979,6.335-17.49,6.335-17.49
		s0,1.507,1.145,4.989c0,3.512,0,7.507,0.572,12.501c0.572,5.493,0.572,11.502,2.301,17.491l1.145,10.506
		c0,3.498,0.578,6,1.145,9.487l3.451,19.992l2.873,16.994c1.15,10.491,1.74,17.988,1.74,17.988S181.043,441.531,175.297,432.021z"/>
	<path fill="#4A099A" d="M247.74,164.162c1.717,2.487,2.3,3.487,4.017,4.989l3.446,2.99c0.595,1.507,1.15,3,2.318,4.517
		c0.572,1.995,2.3,4.497,2.3,7.482c0.573,5.492,0.573,11.501,0.573,17.003c-0.573,10.472-1.145,17.989-1.145,17.989
		s5.746-5.492,10.914-15.999c1.145-3,2.29-6,2.873-9.014c0.595-3.487,1.74-7.481,1.74-10.979c0-3.995-1.145-8.004-2.318-11.999
		c-1.145-1.99-2.29-4.492-3.445-6.497c-0.572-0.487-1.145-1.995-2.301-2.492l-1.717-1.493v-0.512
		c-1.15-1.482-2.873-3.512-3.451-4.492c0-0.498-1.145-1.01-1.717-2.502c-0.572-2.492-2.301-5.502-2.301-7.995
		c-1.167-6.486-1.167-11.999-1.167-17.491c1.167-9.999,1.74-17.491,1.74-17.491s-6.335,5.492-10.925,15.501
		c-2.3,5.492-4.607,12.477-4.607,19.993c0,3.985,0,7.98,1.729,12.487C244.867,160.152,246.584,162.157,247.74,164.162z"/>
	<path d="M302.36,123.181c0,0,0,0,0.577,0.498L302.36,123.181z"/>
</g>
</svg>
