<?xml version="1.0" encoding="utf-8"?>
<!-- Generator: Adobe Illustrator 16.0.0, SVG Export Plug-In . SVG Version: 6.00 Build 0)  -->
<!DOCTYPE svg PUBLIC "-//W3C//DTD SVG 1.1//EN" "http://www.w3.org/Graphics/SVG/1.1/DTD/svg11.dtd">
<svg version="1.1" id="Layer_1" xmlns="http://www.w3.org/2000/svg" xmlns:xlink="http://www.w3.org/1999/xlink" x="0px" y="0px"
	 width="600px" height="600px" viewBox="0 0 600 600" enable-background="new 0 0 600 600" xml:space="preserve">
<title>76</title>
<path fill="#4A099A" d="M301,40.75c-53.709-0.132-106.084,16.911-149.629,48.688l-48.172-48.687v120.07h118.797l-46.087-46.581
	c101.496-69.835,239.786-43.289,308.881,59.295c69.094,102.583,42.829,242.357-58.667,312.193
	c-101.495,69.834-239.785,43.287-308.88-59.295C92.133,389.152,78.704,345.1,78.7,300H44.5c0,143.179,114.839,259.25,256.5,259.25
	S557.5,443.18,557.5,300C557.5,156.821,442.661,40.75,301,40.75z"/>
<polygon fill="#4A099A" points="285.6,192.936 285.6,334.775 357.893,407.063 378.254,386.702 314.4,322.844 314.4,192.936 "/>
</svg>
